{
  "accessors": [
    {
      "bufferView": 2,
      "componentType": 5126,
      "count": 188,
      "max": [
        32.25,
        33.927879333496094,
        31.450719833374023
      ],
      "min": [
        1.0,
        2.5654430389404297,
        7.056763172149658
      ],
      "type": "VEC3"
    },
    {
      "bufferView": 0,
      "componentType": 5125,
      "count": 256,
      "type": "SCALAR"
    },
    {
      "bufferView": 2,
      "byteOffset": 2256,
      "componentType": 5126,
      "count": 64,
      "max": [
        31.25,
        33.927879333496094,
        8.045973777770996
      ],
      "min": [
        1.0,
        2.5654430389404297,
        7.056763172149658
      ],
      "type": "VEC3"
    },
    {
      "bufferView": 2,
      "byteOffset": 3024,
      "componentType": 5126,
      "count": 64,
      "max": [
        1.0,
        0.9843065142631531,
        1.0
      ],
      "min": [
        -1.0,
        -0.00030773619073443115,
        -1.0
      ],
      "type": "VEC3"
    },
    {
      "bufferView": 0,
      "byteOffset": 1024,
      "componentType": 5125,
      "count": 108,
      "type": "SCALAR"
    },
    {
      "bufferView": 2,
      "byteOffset": 3792,
      "componentType": 5126,
      "count": 450,
      "max": [
        32.25,
        35.988590240478516,
        31.450719833374023
      ],
      "min": [
        1.0,
        1.258491039276123,
        7.355228067537254e-16
      ],
      "type": "VEC3"
    },
    {
      "bufferView": 2,
      "byteOffset": 9192,
      "componentType": 5126,
      "count": 450,
      "max": [
        1.0,
        0.9885109066963196,
        1.0
      ],
      "min": [
        -1.0,
        -0.9886751174926758,
        -1.0
      ],
      "type": "VEC3"
    },
    {
      "bufferView": 0,
      "byteOffset": 1456,
      "componentType": 5125,
      "count": 1170,
      "type": "SCALAR"
    },
    {
      "bufferView": 2,
      "byteOffset": 14592,
      "componentType": 5126,
      "count": 360,
      "max": [
        32.25,
        35.988590240478516,
        31.450719833374023
      ],
      "min": [
        1.5176391343629803e-07,
        1.258491039276123,
        0.0
      ],
      "type": "VEC3"
    },
    {
      "bufferView": 0,
      "byteOffset": 6136,
      "componentType": 5125,
      "count": 930,
      "type": "SCALAR"
    },
    {
      "bufferView": 2,
      "byteOffset": 18912,
      "componentType": 5126,
      "count": 926,
      "max": [
        32.25,
        35.988590240478516,
        31.450719833374023
      ],
      "min": [
        1.5176391343629803e-07,
        1.258491039276123,
        0.0
      ],
      "type": "VEC3"
    },
    {
      "bufferView": 2,
      "byteOffset": 30024,
      "componentType": 5126,
      "count": 926,
      "max": [
        1.0,
        0.9886751174926758,
        1.0
      ],
      "min": [
        -1.0,
        -0.9885109066963196,
        -1.0
      ],
      "type": "VEC3"
    },
    {
      "bufferView": 1,
      "componentType": 5126,
      "count": 926,
      "max": [
        9.93687915802002,
        2.4279580116271973
      ],
      "min": [
        9.420998573303223,
        1.683927059173584
      ],
      "type": "VEC2"
    },
    {
      "bufferView": 0,
      "byteOffset": 9856,
      "componentType": 5125,
      "count": 2232,
      "type": "SCALAR"
    },
    {
      "bufferView": 2,
      "byteOffset": 41136,
      "componentType": 5126,
      "count": 542,
      "max": [
        5.246060848236084,
        35.988590240478516,
        31.450719833374023
      ],
      "min": [
        1.5176391343629803e-07,
        1.258491039276123,
        0.0
      ],
      "type": "VEC3"
    },
    {
      "bufferView": 2,
      "byteOffset": 47640,
      "componentType": 5126,
      "count": 542,
      "max": [
        1.0,
        0.9885109066963196,
        1.0
      ],
      "min": [
        -1.0,
        -0.9886751174926758,
        -1.0
      ],
      "type": "VEC3"
    },
    {
      "bufferView": 1,
      "byteOffset": 7408,
      "componentType": 5126,
      "count": 542,
      "max": [
        8.682482719421387,
        10.703949928283691
      ],
      "min": [
        -8.682483673095703,
        -7.306169033050537
      ],
      "type": "VEC2"
    },
    {
      "bufferView": 0,
      "byteOffset": 18784,
      "componentType": 5125,
      "count": 1062,
      "type": "SCALAR"
    },
    {
      "bufferView": 2,
      "byteOffset": 54144,
      "componentType": 5126,
      "count": 210,
      "max": [
        31.25,
        35.5,
        35.77698516845703
      ],
      "min": [
        1.0,
        0.0,
        8.045283317565918
      ],
      "type": "VEC3"
    },
    {
      "bufferView": 0,
      "byteOffset": 23032,
      "componentType": 5125,
      "count": 640,
      "type": "SCALAR"
    },
    {
      "bufferView": 2,
      "byteOffset": 56664,
      "componentType": 5126,
      "count": 892,
      "max": [
        31.25,
        35.5,
        35.77698516845703
      ],
      "min": [
        1.0,
        0.0,
        8.045283317565918
      ],
      "type": "VEC3"
    },
    {
      "bufferView": 2,
      "byteOffset": 67368,
      "componentType": 5126,
      "count": 892,
      "max": [
        1.0,
        1.0,
        1.0
      ],
      "min": [
        -1.0,
        -1.0,
        -1.0
      ],
      "type": "VEC3"
    },
    {
      "bufferView": 0,
      "byteOffset": 25592,
      "componentType": 5125,
      "count": 2508,
      "type": "SCALAR"
    },
    {
      "bufferView": 2,
      "byteOffset": 78072,
      "componentType": 5126,
      "count": 54,
      "max": [
        23.327999114990234,
        22.599000930786133,
        5.831999778747559
      ],
      "min": [
        0.0,
        0.0,
        -7.105426934084528e-15
      ],
      "type": "VEC3"
    },
    {
      "bufferView": 0,
      "byteOffset": 35624,
      "componentType": 5125,
      "count": 120,
      "type": "SCALAR"
    },
    {
      "bufferView": 2,
      "byteOffset": 78720,
      "componentType": 5126,
      "count": 44,
      "max": [
        23.327999114990234,
        22.599000930786133,
        5.584136962890625
      ],
      "min": [
        0.0,
        0.0,
        0.24786320328712463
      ],
      "type": "VEC3"
    },
    {
      "bufferView": 0,
      "byteOffset": 36104,
      "componentType": 5125,
      "count": 66,
      "type": "SCALAR"
    },
    {
      "bufferView": 2,
      "byteOffset": 79248,
      "componentType": 5126,
      "count": 176,
      "max": [
        23.327999114990234,
        22.599000930786133,
        5.831999778747559
      ],
      "min": [
        0.0,
        0.0,
        -7.105426934084528e-15
      ],
      "type": "VEC3"
    },
    {
      "bufferView": 2,
      "byteOffset": 81360,
      "componentType": 5126,
      "count": 176,
      "max": [
        0.7296803593635559,
        1.0,
        0.9779971241950989
      ],
      "min": [
        -0.7296803593635559,
        -0.7071068286895752,
        -0.9779971241950989
      ],
      "type": "VEC3"
    },
    {
      "bufferView": 1,
      "byteOffset": 11744,
      "componentType": 5126,
      "count": 176,
      "max": [
        1.944000005722046,
        2.1032559871673584
      ],
      "min": [
        -1.944000005722046,
        -1.6726750135421753
      ],
      "type": "VEC2"
    },
    {
      "bufferView": 0,
      "byteOffset": 36368,
      "componentType": 5125,
      "count": 312,
      "type": "SCALAR"
    },
    {
      "bufferView": 2,
      "byteOffset": 83472,
      "componentType": 5126,
      "count": 176,
      "max": [
        23.327999114990234,
        22.599000930786133,
        5.831999778747559
      ],
      "min": [
        0.0,
        0.0,
        -7.105426934084528e-15
      ],
      "type": "VEC3"
    },
    {
      "bufferView": 2,
      "byteOffset": 85584,
      "componentType": 5126,
      "count": 176,
      "max": [
        0.7296803593635559,
        0.7071068286895752,
        0.9779971241950989
      ],
      "min": [
        -0.7296803593635559,
        -1.0,
        -0.9779971241950989
      ],
      "type": "VEC3"
    },
    {
      "bufferView": 1,
      "byteOffset": 13152,
      "componentType": 5126,
      "count": 176,
      "max": [
        1.944000005722046,
        2.1032559871673584
      ],
      "min": [
        -1.944000005722046,
        -1.6726750135421753
      ],
      "type": "VEC2"
    },
    {
      "bufferView": 0,
      "byteOffset": 37616,
      "componentType": 5125,
      "count": 312,
      "type": "SCALAR"
    },
    {
      "bufferView": 2,
      "byteOffset": 87696,
      "componentType": 5126,
      "count": 54,
      "max": [
        23.327999114990234,
        22.599000930786133,
        5.831999778747559
      ],
      "min": [
        0.0,
        0.0,
        -7.105426934084528e-15
      ],
      "type": "VEC3"
    },
    {
      "bufferView": 0,
      "byteOffset": 38864,
      "componentType": 5125,
      "count": 120,
      "type": "SCALAR"
    },
    {
      "bufferView": 2,
      "byteOffset": 88344,
      "componentType": 5126,
      "count": 44,
      "max": [
        23.327999114990234,
        22.599000930786133,
        5.584136962890625
      ],
      "min": [
        0.0,
        0.0,
        0.24786320328712463
      ],
      "type": "VEC3"
    },
    {
      "bufferView": 0,
      "byteOffset": 39344,
      "componentType": 5125,
      "count": 66,
      "type": "SCALAR"
    },
    {
      "bufferView": 2,
      "byteOffset": 88872,
      "componentType": 5126,
      "count": 176,
      "max": [
        23.327999114990234,
        22.599000930786133,
        5.831999778747559
      ],
      "min": [
        0.0,
        0.0,
        -7.105426934084528e-15
      ],
      "type": "VEC3"
    },
    {
      "bufferView": 2,
      "byteOffset": 90984,
      "componentType": 5126,
      "count": 176,
      "max": [
        0.7296803593635559,
        1.0,
        0.9779971241950989
      ],
      "min": [
        -0.7296803593635559,
        -0.7071068286895752,
        -0.9779971241950989
      ],
      "type": "VEC3"
    },
    {
      "bufferView": 1,
      "byteOffset": 14560,
      "componentType": 5126,
      "count": 176,
      "max": [
        1.944000005722046,
        2.1032559871673584
      ],
      "min": [
        -1.944000005722046,
        -1.6726750135421753
      ],
      "type": "VEC2"
    },
    {
      "bufferView": 0,
      "byteOffset": 39608,
      "componentType": 5125,
      "count": 312,
      "type": "SCALAR"
    },
    {
      "bufferView": 2,
      "byteOffset": 93096,
      "componentType": 5126,
      "count": 176,
      "max": [
        23.327999114990234,
        22.599000930786133,
        5.831999778747559
      ],
      "min": [
        0.0,
        0.0,
        -7.105426934084528e-15
      ],
      "type": "VEC3"
    },
    {
      "bufferView": 2,
      "byteOffset": 95208,
      "componentType": 5126,
      "count": 176,
      "max": [
        0.7296803593635559,
        0.7071068286895752,
        0.9779971241950989
      ],
      "min": [
        -0.7296803593635559,
        -1.0,
        -0.9779971241950989
      ],
      "type": "VEC3"
    },
    {
      "bufferView": 1,
      "byteOffset": 15968,
      "componentType": 5126,
      "count": 176,
      "max": [
        1.944000005722046,
        2.1032559871673584
      ],
      "min": [
        -1.944000005722046,
        -1.6726750135421753
      ],
      "type": "VEC2"
    },
    {
      "bufferView": 0,
      "byteOffset": 40856,
      "componentType": 5125,
      "count": 312,
      "type": "SCALAR"
    }
  ],
  "asset": {
    "extras": {
      "author": "valentiaaquany (https://sketchfab.com/valentiaaquany)",
      "license": "CC-BY-4.0 (http://creativecommons.org/licenses/by/4.0/)",
      "source": "https://sketchfab.com/3d-models/brown-lounge-chair-fa59819201c948c1a513b146fd7f05bd",
      "title": "Brown Lounge Chair"
    },
    "generator": "Sketchfab-12.68.0",
    "version": "2.0"
  },
  "bufferViews": [
    {
      "buffer": 0,
      "byteLength": 42104,
      "name": "floatBufferViews",
      "target": 34963
    },
    {
      "buffer": 0,
      "byteLength": 17376,
      "byteOffset": 42104,
      "byteStride": 8,
      "name": "floatBufferViews",
      "target": 34962
    },
    {
      "buffer": 0,
      "byteLength": 97320,
      "byteOffset": 59480,
      "byteStride": 12,
      "name": "floatBufferViews",
      "target": 34962
    }
  ],
  "buffers": [
    {
      "byteLength": 156800,
      "uri": "scene.bin"
    }
  ],
  "images": [
    {
      "uri": "textures/moonstone_baseColor.jpeg"
    },
    {
      "uri": "textures/moonstone_1_baseColor.jpeg"
    },
    {
      "uri": "textures/Metal_Corrugated_Shiny_Bronze_baseColor.jpeg"
    },
    {
      "uri": "textures/Metal_Corrugated_Shiny_Bronze_0_baseColor.jpeg"
    }
  ],
  "materials": [
    {
      "name": "edge_color1021020255",
      "pbrMetallicRoughness": {
        "metallicFactor": 0.0,
        "roughnessFactor": 0.6
      }
    },
    {
      "name": "edge_color110106101255",
      "pbrMetallicRoughness": {
        "metallicFactor": 0.0,
        "roughnessFactor": 0.6
      }
    },
    {
      "name": "moonstone",
      "pbrMetallicRoughness": {
        "baseColorTexture": {
          "index": 0
        },
        "metallicFactor": 0.0,
        "roughnessFactor": 0.6
      }
    },
    {
      "name": "moonstone_1",
      "pbrMetallicRoughness": {
        "baseColorTexture": {
          "index": 1
        },
        "metallicFactor": 0.0,
        "roughnessFactor": 0.6
      }
    },
    {
      "name": "edge_color000255",
      "pbrMetallicRoughness": {
        "metallicFactor": 0.0,
        "roughnessFactor": 0.6
      }
    },
    {
      "name": "material_2",
      "pbrMetallicRoughness": {
        "metallicFactor": 0.0,
        "roughnessFactor": 0.6
      }
    },
    {
      "name": "material",
      "pbrMetallicRoughness": {
        "baseColorFactor": [
          0.643137,
          0.698039,
          0.733333,
          1.0
        ],
        "metallicFactor": 0.0,
        "roughnessFactor": 0.6
      }
    },
    {
      "name": "edge_color172153117255",
      "pbrMetallicRoughness": {
        "metallicFactor": 0.0,
        "roughnessFactor": 0.6
      }
    },
    {
      "name": "Metal_Corrugated_Shiny_Bronze",
      "pbrMetallicRoughness": {
        "baseColorTexture": {
          "index": 2
        },
        "metallicFactor": 0.0,
        "roughnessFactor": 0.6
      }
    },
    {
      "name": "Metal_Corrugated_Shiny_Bronze_0",
      "pbrMetallicRoughness": {
        "baseColorTexture": {
          "index": 3
        },
        "metallicFactor": 0.0,
        "roughnessFactor": 0.6
      }
    },
    {
      "name": "edge_color726969255",
      "pbrMetallicRoughness": {
        "metallicFactor": 0.0,
        "roughnessFactor": 0.6
      }
    },
    {
      "name": "Chris_Shoe_Sole",
      "pbrMetallicRoughness": {
        "baseColorFactor": [
          0.282353,
          0.270588,
          0.270588,
          1.0
        ],
        "metallicFactor": 0.0,
        "roughnessFactor": 0.6
      }
    }
  ],
  "meshes": [
    {
      "name": "Material5",
      "primitives": [
        {
          "attributes": {
            "POSITION": 0
          },
          "indices": 1,
          "material": 4,
          "mode": 1
        }
      ]
    },
    {
      "name": "Material4",
      "primitives": [
        {
          "attributes": {
            "NORMAL": 3,
            "POSITION": 2
          },
          "indices": 4,
          "material": 5,
          "mode": 4
        }
      ]
    },
    {
      "name": "Material2",
      "primitives": [
        {
          "attributes": {
            "NORMAL": 6,
            "POSITION": 5
          },
          "indices": 7,
          "material": 6,
          "mode": 4
        }
      ]
    },
    {
      "name": "Material5",
      "primitives": [
        {
          "attributes": {
            "POSITION": 8
          },
          "indices": 9,
          "material": 7,
          "mode": 1
        }
      ]
    },
    {
      "name": "Material2",
      "primitives": [
        {
          "attributes": {
            "NORMAL": 11,
            "POSITION": 10,
            "TEXCOORD_0": 12
          },
          "indices": 13,
          "material": 8,
          "mode": 4
        }
      ]
    },
    {
      "name": "Material3",
      "primitives": [
        {
          "attributes": {
            "NORMAL": 15,
            "POSITION": 14,
            "TEXCOORD_0": 16
          },
          "indices": 17,
          "material": 9,
          "mode": 4
        }
      ]
    },
    {
      "name": "Material3",
      "primitives": [
        {
          "attributes": {
            "POSITION": 18
          },
          "indices": 19,
          "material": 10,
          "mode": 1
        }
      ]
    },
    {
      "name": "Material2",
      "primitives": [
        {
          "attributes": {
            "NORMAL": 21,
            "POSITION": 20
          },
          "indices": 22,
          "material": 11,
          "mode": 4
        }
      ]
    },
    {
      "name": "Material4",
      "primitives": [
        {
          "attributes": {
            "POSITION": 23
          },
          "indices": 24,
          "material": 0,
          "mode": 1
        }
      ]
    },
    {
      "name": "Material5",
      "primitives": [
        {
          "attributes": {
            "POSITION": 25
          },
          "indices": 26,
          "material": 1,
          "mode": 1
        }
      ]
    },
    {
      "name": "Material2",
      "primitives": [
        {
          "attributes": {
            "NORMAL": 28,
            "POSITION": 27,
            "TEXCOORD_0": 29
          },
          "indices": 30,
          "material": 2,
          "mode": 4
        }
      ]
    },
    {
      "name": "Material3",
      "primitives": [
        {
          "attributes": {
            "NORMAL": 32,
            "POSITION": 31,
            "TEXCOORD_0": 33
          },
          "indices": 34,
          "material": 3,
          "mode": 4
        }
      ]
    },
    {
      "name": "Material4",
      "primitives": [
        {
          "attributes": {
            "POSITION": 35
          },
          "indices": 36,
          "material": 0,
          "mode": 1
        }
      ]
    },
    {
      "name": "Material5",
      "primitives": [
        {
          "attributes": {
            "POSITION": 37
          },
          "indices": 38,
          "material": 1,
          "mode": 1
        }
      ]
    },
    {
      "name": "Material2",
      "primitives": [
        {
          "attributes": {
            "NORMAL": 40,
            "POSITION": 39,
            "TEXCOORD_0": 41
          },
          "indices": 42,
          "material": 2,
          "mode": 4
        }
      ]
    },
    {
      "name": "Material3",
      "primitives": [
        {
          "attributes": {
            "NORMAL": 44,
            "POSITION": 43,
            "TEXCOORD_0": 45
          },
          "indices": 46,
          "material": 3,
          "mode": 4
        }
      ]
    }
  ],
  "nodes": [
    {
      "children": [
        1
      ],
      "matrix": [
        1.0,
        0.0,
        0.0,
        0.0,
        0.0,
        2.220446049250313e-16,
        -1.0,
        0.0,
        0.0,
        1.0,
        2.220446049250313e-16,
        0.0,
        0.0,
        0.0,
        0.0,
        1.0
      ],
      "name": "Sketchfab_model"
    },
    {
      "children": [
        2,
        3,
        4,
        5,
        6,
        7,
        8,
        9,
        10
      ],
      "name": "Collada visual scene group"
    },
    {
      "mesh": 0,
      "name": "Material5"
    },
    {
      "mesh": 1,
      "name": "Material4"
    },
    {
      "mesh": 2,
      "name": "Material2"
    },
    {
      "mesh": 3,
      "name": "Material5"
    },
    {
      "mesh": 4,
      "name": "Material2"
    },
    {
      "mesh": 5,
      "name": "Material3"
    },
    {
      "mesh": 6,
      "name": "Material3"
    },
    {
      "mesh": 7,
      "name": "Material2"
    },
    {
      "children": [
        11,
        13
      ],
      "name": "SketchUp"
    },
    {
      "children": [
        12
      ],
      "matrix": [
        0.7697586,
        0.638335,
        -8.326673e-17,
        0.0,
        -0.1477348,
        0.1781512,
        0.9728497,
        0.0,
        0.6210041,
        -0.7488595,
        0.2314377,
        0.0,
        65.94121,
        -41.95881,
        31.78589,
        1.0
      ],
      "name": "skp_camera_Last_Saved_SketchUp_View"
    },
    {
      "name": "ID1"
    },
    {
      "children": [
        14
      ],
      "matrix": [
        1.0,
        0.0,
        0.0,
        0.0,
        0.0,
        1.0,
        0.0,
        0.0,
        0.0,
        0.0,
        1.0,
        0.0,
        1.0,
        0.0,
        8.045283,
        1.0
      ],
      "name": "instance_2"
    },
    {
      "children": [
        15,
        21
      ],
      "name": "Upholstered_Chair"
    },
    {
      "children": [
        16
      ],
      "matrix": [
        1.210842,
        0.0,
        5.254869e-46,
        0.0,
        4.379058e-47,
        1.152522,
        2.775558e-17,
        0.0,
        -3.941152e-46,
        5.551115e-17,
        1.0,
        0.0,
        1.0,
        0.1807674,
        2.90122,
        1.0
      ],
      "name": "instance_3"
    },
    {
      "children": [
        17,
        18,
        19,
        20
      ],
      "name": "sofa_cushion"
    },
    {
      "mesh": 8,
      "name": "Material4"
    },
    {
      "mesh": 9,
      "name": "Material5"
    },
    {
      "mesh": 10,
      "name": "Material2"
    },
    {
      "mesh": 11,
      "name": "Material3"
    },
    {
      "children": [
        22
      ],
      "matrix": [
        1.210842,
        2.321703e-30,
        -4.846349e-31,
        0.0,
        1.019315e-31,
        -0.2405808,
        -0.8978597,
        0.0,
        -1.955684e-30,
        0.9659258,
        -0.258819,
        0.0,
        1.0,
        29.42679,
        29.19811,
        1.0
      ],
      "name": "instance_6"
    },
    {
      "children": [
        23,
        24,
        25,
        26
      ],
      "name": "sofa_cushion"
    },
    {
      "mesh": 12,
      "name": "Material4"
    },
    {
      "mesh": 13,
      "name": "Material5"
    },
    {
      "mesh": 14,
      "name": "Material2"
    },
    {
      "mesh": 15,
      "name": "Material3"
    }
  ],
  "samplers": [
    {
      "magFilter": 9729,
      "minFilter": 9987,
      "wrapS": 10497,
      "wrapT": 10497
    }
  ],
  "scene": 0,
  "scenes": [
    {
      "name": "Sketchfab_Scene",
      "nodes": [
        0
      ]
    }
  ],
  "textures": [
    {
      "sampler": 0,
      "source": 0
    },
    {
      "sampler": 0,
      "source": 1
    },
    {
      "sampler": 0,
      "source": 2
    },
    {
      "sampler": 0,
      "source": 3
    }
  ]
}
