{
  "accessors": [
    {
      "bufferView": 3,
      "componentType": 5126,
      "count": 8217,
      "max": [
        3.4389939308166504,
        2.034578800201416,
        5.790338516235352
      ],
      "min": [
        -3.4389939308166504,
        -2.0434212684631348,
        -4.2847208976745605
      ],
      "type": "VEC3"
    },
    {
      "bufferView": 3,
      "byteOffset": 98604,
      "componentType": 5126,
      "count": 8217,
      "max": [
        1.0,
        1.0,
        1.0
      ],
      "min": [
        -1.0,
        -1.0,
        -1.0
      ],
      "type": "VEC3"
    },
    {
      "bufferView": 2,
      "componentType": 5126,
      "count": 8217,
      "max": [
        0.9946399927139282,
        0.9951555132865906
      ],
      "min": [
        0.0012839999981224537,
        0.012377000413835049
      ],
      "type": "VEC2"
    },
    {
      "bufferView": 1,
      "componentType": 5125,
      "count": 29538,
      "type": "SCALAR"
    },
    {
      "bufferView": 5,
      "componentType": 5126,
      "count": 6,
      "max": [
        100.0,
        0.0,
        0.0,
        0.0,
        0.0,
        100.0,
        1.6292068494294654e-07,
        0.0,
        0.0,
        0.0,
        100.0,
        0.0,
        0.004405406769365072,
        1.4335839748382568,
        0.0,
        1.0
      ],
      "min": [
        1.0,
        0.0,
        0.0,
        0.0,
        0.0,
        1.0,
        0.0,
        0.0,
        0.0,
        -1.6292068494294654e-07,
        1.0,
        0.0,
        0.0,
        -0.20924808084964752,
        -5.423991680145264,
        1.0
      ],
      "type": "MAT4"
    },
    {
      "bufferView": 0,
      "componentType": 5123,
      "count": 8217,
      "type": "VEC4"
    },
    {
      "bufferView": 4,
      "componentType": 5126,
      "count": 8217,
      "max": [
        1.0,
        0.0,
        0.0,
        0.0
      ],
      "min": [
        1.0,
        0.0,
        0.0,
        0.0
      ],
      "type": "VEC4"
    },
    {
      "bufferView": 6,
      "componentType": 5126,
      "count": 161,
      "max": [
        3.3333332538604736
      ],
      "min": [
        0.0
      ],
      "type": "SCALAR"
    },
    {
      "bufferView": 7,
      "componentType": 5126,
      "count": 161,
      "max": [
        1.0,
        0.0,
        0.0,
        1.0
      ],
      "min": [
        -0.8573652505874634,
        0.0,
        0.0,
        -0.4936913847923279
      ],
      "type": "VEC4"
    },
    {
      "bufferView": 6,
      "byteOffset": 644,
      "componentType": 5126,
      "count": 161,
      "max": [
        3.3333332538604736
      ],
      "min": [
        0.0
      ],
      "type": "SCALAR"
    },
    {
      "bufferView": 7,
      "byteOffset": 2576,
      "componentType": 5126,
      "count": 161,
      "max": [
        1.4901161193847656e-08,
        1.14333174039416e-08,
        1.0,
        1.0
      ],
      "min": [
        -6.015822506810764e-09,
        -1.059405452252804e-08,
        -0.8489018082618713,
        -0.4864036440849304
      ],
      "type": "VEC4"
    },
    {
      "bufferView": 6,
      "byteOffset": 1288,
      "componentType": 5126,
      "count": 106,
      "max": [
        3.3333332538604736
      ],
      "min": [
        0.0
      ],
      "type": "SCALAR"
    },
    {
      "bufferView": 7,
      "byteOffset": 5152,
      "componentType": 5126,
      "count": 106,
      "max": [
        0.6092918515205383,
        0.0,
        0.0,
        0.7948670387268066
      ],
      "min": [
        0.6067836880683899,
        0.0,
        0.0,
        0.7929460406303406
      ],
      "type": "VEC4"
    }
  ],
  "animations": [
    {
      "channels": [
        {
          "sampler": 0,
          "target": {
            "node": 8,
            "path": "rotation"
          }
        },
        {
          "sampler": 1,
          "target": {
            "node": 10,
            "path": "rotation"
          }
        },
        {
          "sampler": 2,
          "target": {
            "node": 7,
            "path": "rotation"
          }
        }
      ],
      "name": "basic_plane_bones|basic_plane_bones|basic_plane_bones|ArmatureAction|basic_plane_",
      "samplers": [
        {
          "input": 7,
          "interpolation": "LINEAR",
          "output": 8
        },
        {
          "input": 9,
          "interpolation": "LINEAR",
          "output": 10
        },
        {
          "input": 11,
          "interpolation": "LINEAR",
          "output": 12
        }
      ]
    }
  ],
  "asset": {
    "extras": {
      "author": "Blender3D (https://sketchfab.com/Blender3D)",
      "license": "CC-BY-4.0 (http://creativecommons.org/licenses/by/4.0/)",
      "source": "https://sketchfab.com/3d-models/basic-plane-319a57619948416288cc2d2880c70a4a",
      "title": "Basic Plane"
    },
    "generator": "Sketchfab-11.90.0",
    "version": "2.0"
  },
  "bufferViews": [
    {
      "buffer": 0,
      "byteLength": 65736,
      "byteStride": 8,
      "name": "shortBufferViews",
      "target": 34962
    },
    {
      "buffer": 0,
      "byteLength": 118152,
      "byteOffset": 65736,
      "name": "floatBufferViews",
      "target": 34963
    },
    {
      "buffer": 0,
      "byteLength": 65736,
      "byteOffset": 183888,
      "byteStride": 8,
      "name": "floatBufferViews",
      "target": 34962
    },
    {
      "buffer": 0,
      "byteLength": 197208,
      "byteOffset": 249624,
      "byteStride": 12,
      "name": "floatBufferViews",
      "target": 34962
    },
    {
      "buffer": 0,
      "byteLength": 131472,
      "byteOffset": 446832,
      "byteStride": 16,
      "name": "floatBufferViews",
      "target": 34962
    },
    {
      "buffer": 0,
      "byteLength": 384,
      "byteOffset": 578304,
      "name": "floatBufferViews"
    },
    {
      "buffer": 0,
      "byteLength": 1712,
      "byteOffset": 578688,
      "name": "floatBufferViews"
    },
    {
      "buffer": 0,
      "byteLength": 6848,
      "byteOffset": 580400,
      "byteStride": 16,
      "name": "floatBufferViews"
    }
  ],
  "buffers": [
    {
      "byteLength": 587248,
      "uri": "scene.bin"
    }
  ],
  "images": [
    {
      "uri": "textures/Scene_-_Root_baseColor.jpeg"
    },
    {
      "uri": "textures/Scene_-_Root_metallicRoughness.png"
    }
  ],
  "materials": [
    {
      "name": "Scene_-_Root",
      "occlusionTexture": {
        "index": 1
      },
      "pbrMetallicRoughness": {
        "baseColorTexture": {
          "index": 0
        },
        "metallicRoughnessTexture": {
          "index": 1
        }
      }
    }
  ],
  "meshes": [
    {
      "name": "basic_plane__0",
      "primitives": [
        {
          "attributes": {
            "JOINTS_0": 5,
            "NORMAL": 1,
            "POSITION": 0,
            "TEXCOORD_0": 2,
            "WEIGHTS_0": 6
          },
          "indices": 3,
          "material": 0,
          "mode": 4
        }
      ]
    }
  ],
  "nodes": [
    {
      "children": [
        1
      ],
      "matrix": [
        1.0,
        0.0,
        0.0,
        0.0,
        0.0,
        2.220446049250313e-16,
        -1.0,
        0.0,
        0.0,
        1.0,
        2.220446049250313e-16,
        0.0,
        0.0,
        0.0,
        0.0,
        1.0
      ],
      "name": "Sketchfab_model"
    },
    {
      "children": [
        2
      ],
      "matrix": [
        0.009999999776482582,
        0.0,
        0.0,
        0.0,
        0.0,
        0.0,
        0.009999999776482582,
        0.0,
        0.0,
        -0.009999999776482582,
        0.0,
        0.0,
        0.0,
        0.0,
        0.0,
        1.0
      ],
      "name": "basic_plane_model.fbx"
    },
    {
      "children": [
        3
      ],
      "name": "Object_2"
    },
    {
      "children": [
        4,
        14
      ],
      "name": "RootNode"
    },
    {
      "children": [
        5
      ],
      "name": "basic_plane_bones",
      "rotation": [
        -0.7071068286895752,
        0.0,
        0.0,
        0.7071067094802856
      ],
      "scale": [
        100.0,
        100.0,
        100.0
      ],
      "translation": [
        0.0,
        -143.35836791992188,
        210.82322692871094
      ]
    },
    {
      "children": [
        6,
        13,
        12
      ],
      "name": "Object_5"
    },
    {
      "children": [
        7
      ],
      "name": "_rootJoint"
    },
    {
      "children": [
        8,
        10
      ],
      "name": "body_00",
      "rotation": [
        0.6078753471374512,
        0.0,
        0.0,
        0.7940324544906616
      ],
      "scale": [
        1.0,
        0.9999998211860657,
        0.9999998211860657
      ],
      "translation": [
        -0.004405406769365072,
        1.9343366622924805,
        0.9207689762115479
      ]
    },
    {
      "children": [
        9
      ],
      "name": "wheels_01",
      "rotation": [
        2.7755575615628914e-17,
        0.0,
        0.0,
        1.0
      ],
      "translation": [
        0.004405406769365072,
        -1.6428316831588745,
        1.1501469612121582
      ]
    },
    {
      "name": "wheels_end_03",
      "rotation": [
        -2.7755575615628914e-17,
        -0.0,
        0.0,
        1.0
      ],
      "translation": [
        0.0,
        1.0,
        -2.220446049250313e-16
      ]
    },
    {
      "children": [
        11
      ],
      "name": "blade_02",
      "rotation": [
        1.4901161193847656e-08,
        0.0,
        0.0,
        1.0
      ],
      "translation": [
        0.004403701517730951,
        -0.06822514533996582,
        4.465906620025635
      ]
    },
    {
      "name": "blade_end_04",
      "rotation": [
        2.7755575615628914e-17,
        0.0,
        0.0,
        1.0
      ],
      "translation": [
        0.0,
        1.0000001192092896,
        0.0
      ]
    },
    {
      "matrix": [
        100.0,
        0.0,
        0.0,
        0.0,
        0.0,
        100.00000000000266,
        -7.389644451905041e-13,
        0.0,
        0.0,
        7.389644451905041e-13,
        100.00000000000266,
        0.0,
        5.587935447692871e-09,
        -0.442134923301726,
        75.28088130971688,
        1.0
      ],
      "name": "Object_12"
    },
    {
      "mesh": 0,
      "name": "Object_13",
      "skin": 0
    },
    {
      "name": "basic_plane",
      "scale": [
        100.0,
        100.0,
        100.0
      ],
      "translation": [
        0.0,
        -0.4421335756778717,
        75.2808837890625
      ]
    }
  ],
  "samplers": [
    {
      "magFilter": 9729,
      "minFilter": 9987,
      "wrapS": 10497,
      "wrapT": 10497
    }
  ],
  "scene": 0,
  "scenes": [
    {
      "name": "Sketchfab_Scene",
      "nodes": [
        0
      ]
    }
  ],
  "skins": [
    {
      "inverseBindMatrices": 4,
      "joints": [
        6,
        7,
        8,
        9,
        10,
        11
      ],
      "skeleton": 6
    }
  ],
  "textures": [
    {
      "sampler": 0,
      "source": 0
    },
    {
      "sampler": 0,
      "source": 1
    }
  ]
}
